<?xml version="1.0" encoding="UTF-8"?>
<svg id="Layer_1" xmlns="http://www.w3.org/2000/svg" version="1.1" viewBox="0 0 480 480">
  <!-- Generator: Adobe Illustrator 30.2.1, SVG Export Plug-In . SVG Version: 2.1.1 Build 1)  -->
  <defs>
    <style>
      .st0 {
        fill: #fff;
        fill-rule: evenodd;
      }
    </style>
  </defs>
  <path class="st0" d="M241.47,323c2.04-.64,3.82-1.59,5.33-2.88,1.51-1.29,2.7-2.92,3.57-4.9.87-1.98,1.31-4.31,1.31-7.01,0-2.11-.26-3.97-.76-5.57-.5-1.6-1.19-2.98-2.04-4.16-.85-1.17-1.84-2.15-2.97-2.93-1.12-.78-2.29-1.41-3.52-1.87-1.23-.47-2.47-.8-3.72-.99-1.26-.19-2.44-.29-3.54-.29h-15.43v1.71l3.21,1.14c.27.09.49.23.66.4.17.18.26.44.26.76v23.48c0,.33-.09.59-.26.78-.17.19-.39.33-.66.43l-3.21,1.14v1.71h15.2c2.34,0,4.53-.32,6.58-.95ZM230.85,295.67h3.19c1.51,0,2.9.3,4.15.91,1.25.61,2.31,1.48,3.19,2.62.88,1.14,1.56,2.53,2.03,4.16.48,1.63.71,3.47.71,5.52,0,1.86-.18,3.52-.54,4.98-.35,1.46-.9,2.7-1.64,3.72-.74,1.01-1.66,1.77-2.78,2.3-1.11.53-2.44.8-3.99.8h-4.33v-25.01Z"/>
  <path class="st0" d="M307.65,319.92c-.54.44-1.18.77-1.92,1-.75.24-1.58.36-2.49.36-.49,0-1.05-.07-1.66-.2-.62-.13-1.25-.31-1.87-.51-.64-.21-1.26-.45-1.86-.73s-1.11-.56-1.55-.84c-.09-.05-.18-.12-.28-.2-.1-.09-.19-.19-.29-.29-.1-.11-.18-.21-.26-.32-.08-.1-.13-.2-.18-.31l-1.56-4.34h-2.45l.27,9.16c.85.26,1.74.5,2.68.75.94.23,1.88.44,2.85.64.96.18,1.91.34,2.85.44.95.11,1.84.17,2.7.17,2.34,0,4.36-.28,6.07-.86,1.71-.57,3.12-1.33,4.24-2.28,1.11-.95,1.94-2.03,2.48-3.26.54-1.23.8-2.49.8-3.81,0-1.13-.18-2.14-.52-3.02-.34-.89-.8-1.67-1.37-2.33-.57-.66-1.22-1.23-1.96-1.71-.74-.48-1.51-.87-2.31-1.19-.66-.27-1.28-.5-1.87-.7-.59-.2-1.18-.38-1.76-.55-.57-.18-1.14-.34-1.69-.52-.56-.17-1.12-.35-1.69-.54-.83-.28-1.52-.59-2.08-.91-.54-.33-.99-.69-1.32-1.09-.33-.39-.58-.82-.72-1.28-.14-.46-.21-.97-.21-1.52,0-.49.12-.98.34-1.47.23-.49.57-.93,1.02-1.31.44-.38,1-.69,1.65-.92.65-.23,1.41-.34,2.25-.34.45,0,.94.05,1.47.14.54.1,1.07.23,1.6.37.53.15,1.02.32,1.47.51.45.18.81.38,1.08.57.17.12.35.28.56.47.21.19.35.39.43.6l1.45,4.07h2.44v-8.7c-.66-.18-1.39-.35-2.2-.52-.81-.18-1.67-.33-2.57-.47-.9-.14-1.82-.26-2.78-.33-.95-.08-1.89-.13-2.83-.13-1.07,0-2.11.11-3.11.33-1,.21-1.96.52-2.85.91-.9.39-1.71.87-2.44,1.44-.73.56-1.36,1.2-1.9,1.9-.54.71-.95,1.48-1.24,2.32-.28.85-.44,1.73-.44,2.67,0,1,.14,1.93.42,2.79.28.87.67,1.65,1.18,2.35.51.69,1.14,1.31,1.87,1.86.73.54,1.55,1,2.48,1.36.56.23,1.14.43,1.72.61.59.19,1.18.37,1.77.54.59.18,1.2.35,1.8.54.6.19,1.21.4,1.82.64.67.27,1.26.54,1.77.81.52.28.95.59,1.31.95.36.36.63.77.8,1.22.18.45.27.99.27,1.6,0,.69-.14,1.34-.44,1.92-.28.59-.7,1.09-1.24,1.52Z"/>
  <path class="st0" d="M322.63,296.48c.08-.25.18-.45.33-.59.14-.14.35-.21.62-.21h6.55v24.22c0,.33-.08.59-.25.77-.16.18-.39.33-.69.42l-3.53,1.16v1.71h15.96v-1.71l-3.52-1.16c-.26-.08-.48-.21-.66-.4-.18-.19-.28-.46-.28-.79v-24.22h6.58c.24,0,.44.08.59.23.14.14.26.33.33.58l1.47,4.87h2.45v-8.94h-29.86v8.94h2.44l1.47-4.87Z"/>
  <path class="st0" d="M258.12,295.65c.19.18.29.44.29.77v18.55c0,1.31.27,2.55.81,3.73.54,1.17,1.36,2.21,2.44,3.1,1.08.9,2.42,1.6,4.02,2.13,1.6.52,3.47.78,5.59.78.85,0,1.75-.08,2.71-.26.96-.17,1.92-.44,2.87-.79.95-.36,1.86-.82,2.73-1.39.87-.56,1.64-1.24,2.31-2.03.67-.8,1.21-1.71,1.6-2.74.39-1.04.59-2.19.59-3.47v-17.48c0-.32.09-.56.28-.74.18-.18.4-.32.64-.4l3.21-1.3v-1.71h-11.92v1.71l3.19,1.3c.24.08.45.22.64.38.19.18.28.43.28.75v16.25c0,.56-.05,1.15-.15,1.75-.09.6-.26,1.2-.49,1.79-.23.59-.54,1.15-.93,1.67-.38.53-.87,1-1.44,1.4-.57.4-1.25.72-2.03.95-.78.24-1.67.36-2.69.36s-1.92-.12-2.68-.36c-.76-.23-1.41-.55-1.94-.95-.54-.39-.97-.85-1.31-1.37-.33-.52-.6-1.08-.8-1.67-.19-.59-.33-1.18-.4-1.78-.08-.6-.11-1.18-.11-1.73v-16.45c0-.32.09-.57.28-.76.19-.19.4-.33.64-.4l3.21-1.14v-1.71h-15.31v1.71l3.19,1.14c.26.08.48.2.67.39Z"/>
  <path class="st0" d="M384.51,295.53c.18.23.34.48.48.73l8.8,15.47v8.17c0,.33-.09.59-.27.78-.18.19-.4.33-.67.43l-3.52,1.14v1.71h15.95v-1.71l-3.57-1.14c-.27-.09-.49-.23-.65-.41-.16-.19-.24-.45-.24-.79v-8.33l8.95-15.15c.15-.26.33-.49.55-.73.21-.23.44-.4.68-.5l2.34-1.07v-1.71h-10.6v1.71l3.6,1.43-7.1,12.39h-.25l-1.31-2.75-5.73-9.87,3.7-1.21v-1.71h-14.24v1.71l2.39.91c.3.11.54.28.73.5Z"/>
  <polygon class="st0" points="318.82 245.93 318.82 226.3 267.32 258.48 300.1 252.29 324.63 267.23 316.97 253.66 318.82 245.93"/>
  <polygon class="st0" points="250.91 174.78 176.33 261.27 232.82 215.6 242.8 221.7 250.32 202.44 245.2 200.09 251.03 186.52 250.91 174.78"/>
  <polygon class="st0" points="175.26 238.47 182.15 230.65 190.64 235.95 185.73 226.8 190.54 215.37 177.31 230.75 169.71 228.96 142.88 253.55 179.9 242.98 175.26 238.47"/>
  <path class="st0" d="M366.66,322.24l-3.44-1.14c-.27-.09-.48-.23-.64-.42-.17-.18-.24-.44-.24-.79v-9.99l2.99.78,6.67,10.31c.34.52.64.97.9,1.35.26.39.55.69.87.92.33.23.7.4,1.15.51.44.11,1.03.17,1.76.17h7.82v-1.71l-3.21-.96c-.18-.04-.36-.13-.55-.24-.18-.12-.37-.25-.54-.4-.18-.15-.34-.31-.49-.49-.14-.17-.28-.33-.38-.48l-7.5-11.01c.7-.23,1.43-.57,2.2-1.01.76-.44,1.46-.99,2.08-1.66.63-.67,1.14-1.47,1.55-2.39.41-.93.62-2.03.62-3.27,0-.62-.07-1.26-.2-1.89-.13-.64-.38-1.26-.72-1.84-.34-.59-.8-1.13-1.37-1.63-.57-.51-1.3-.95-2.18-1.33-.89-.38-1.94-.68-3.18-.89-1.24-.22-2.66-.33-4.29-.33h-15.16v1.71l3.21,1.14c.26.08.47.2.65.39.18.18.27.44.27.77v23.48c0,.33-.09.59-.27.78-.18.19-.39.33-.65.43l-3.21,1.14v1.71h15.49v-1.71ZM362.34,295.67h2.7c1.87,0,3.29.46,4.28,1.38.99.92,1.48,2.39,1.48,4.41,0,.75-.11,1.49-.32,2.21-.22.72-.54,1.36-.99,1.93-.44.56-.99,1.01-1.66,1.36-.67.34-1.46.51-2.37.51-.18,0-.42,0-.71-.03-.3,0-.61-.03-.93-.07-.32-.03-.62-.05-.9-.08-.28-.03-.47-.05-.59-.08v-11.56Z"/>
  <path class="st0" d="M179.36,322.24l-3.32-1.14c-.27-.09-.49-.23-.67-.41-.18-.19-.27-.45-.27-.79v-23.48c0-.32.09-.57.28-.76.19-.19.41-.33.66-.4l3.32-1.14v-1.71h-15.53v1.71l3.33,1.14c.25.08.47.2.64.39.18.18.27.44.27.77v23.48c0,.33-.08.59-.23.77-.16.18-.38.33-.68.44l-3.33,1.14v1.71h15.53v-1.71Z"/>
  <path class="st0" d="M84.99,322.24l-3.32-1.14c-.27-.09-.49-.23-.67-.41-.18-.19-.27-.45-.27-.79v-23.48c0-.32.09-.57.28-.76.19-.19.41-.33.66-.4l3.32-1.14v-1.71h-15.53v1.71l3.33,1.14c.25.08.47.2.64.39.18.18.27.44.27.77v23.48c0,.33-.08.59-.23.77-.16.18-.38.33-.68.44l-3.33,1.14v1.71h15.53v-1.71Z"/>
  <path class="st0" d="M92.54,320.24c1.37,1.41,3.03,2.49,4.97,3.23,1.94.75,4.11,1.13,6.49,1.13,1.19,0,2.36-.15,3.51-.46,1.15-.3,2.23-.69,3.26-1.16,1.04-.47,1.98-.99,2.85-1.56.86-.57,1.61-1.11,2.23-1.65v-2.86h-1.38c-.4.34-.86.71-1.39,1.1-.52.39-1.11.76-1.78,1.1-.67.34-1.42.63-2.25.86-.84.23-1.77.34-2.81.34-1.66,0-3.13-.28-4.42-.85-1.3-.57-2.39-1.4-3.28-2.5-.9-1.1-1.57-2.46-2.04-4.08-.47-1.62-.7-3.48-.7-5.57s.21-3.8.64-5.33c.42-1.52,1.01-2.81,1.78-3.84.77-1.03,1.7-1.81,2.79-2.32,1.1-.51,2.3-.77,3.63-.77,1.05,0,2.03.14,2.91.44.88.28,1.74.66,2.58,1.12.18.1.36.23.55.4.19.16.33.35.43.58l1.38,4.09h2.44v-8.3c-.61-.18-1.36-.37-2.27-.57-.9-.2-1.85-.38-2.85-.54-1-.16-1.99-.3-2.99-.41-1-.11-1.91-.17-2.72-.17-1.52,0-2.97.18-4.34.54-1.37.36-2.65.87-3.83,1.54-1.18.67-2.23,1.48-3.18,2.45-.95.96-1.76,2.06-2.43,3.29-.67,1.22-1.18,2.57-1.55,4.03-.37,1.46-.54,3.01-.54,4.68,0,2.54.38,4.83,1.12,6.86.75,2.03,1.82,3.74,3.2,5.15Z"/>
  <path class="st0" d="M147.06,314.71h-2.48l-1.42,5.1c-.08.24-.19.44-.35.59-.15.16-.35.23-.59.23h-12.45v-11.45h6.18c.3,0,.51.08.64.23.13.16.23.35.33.59l1.3,3.54h2.12v-11.95h-2.12l-1.3,3.58c-.09.26-.2.45-.33.59-.13.13-.33.2-.64.2h-6.18v-10.24h10.66c.26,0,.45.07.59.21.14.14.26.34.34.59l1.46,4.52h2.49v-8.64h-26.72v1.71l3.21,1.14c.26.08.47.2.65.39.18.18.27.44.27.77v23.48c0,.33-.09.59-.26.78-.17.19-.39.33-.66.43l-3.21,1.14v1.71h28.46v-9.24Z"/>
  <path class="st0" d="M340.32,174.24c-26.94-26.21-62.72-40.75-100.32-40.75s-73.38,14.54-100.32,40.75c-25.55,24.86-40.89,58.06-43.23,93.55l-50.49-.07v78.78h388.07v-78.78h-50.49c-2.35-35.47-17.69-68.64-43.23-93.49ZM147.84,182.62c24.76-24.09,57.62-37.43,92.16-37.43s67.41,13.34,92.16,37.43c23.27,22.64,37.34,52.81,39.66,85.11h-1.8l-1.5-1.96-47.33-54.36-7.58,4.51-24.75-30.05-10.72,2.15-27.35-30.81-46.59,53.86-15.42-11.41-15.66,18.2-6.72-1.58-53.15,48.73-2.99,2.71h-2.08c2.33-32.3,16.39-62.47,39.66-85.11ZM358.86,267.73H122.98l45.87-42.05,7.37,1.73,13.86-16.1,15.4,11.4,45.39-52.47,24.12,27.17,10.51-2.1,26.17,31.77,7.75-4.61,39.42,45.28ZM422.33,334.81H57.67v-55.37h364.66v55.37Z"/>
  <path class="st0" d="M186.53,295.69c.18.18.27.44.27.77v23.3c0,.33-.09.58-.26.76-.17.18-.39.32-.66.42l-3.21,1.3v1.71h12.05v-1.71l-3.19-1.3c-.27-.1-.49-.24-.66-.42-.17-.18-.25-.44-.25-.76v-19.95h.22l1.97,3.11,14.84,21.22h4.4l.69-5.21v-22.39c0-.31.09-.55.28-.72.18-.18.4-.31.65-.42l3.21-1.29v-1.71h-12.07v1.71l3.21,1.3c.29.12.53.25.69.41.17.16.25.39.25.73v18.07h-.25l-1.85-2.92-13.43-19.29h-10.94v1.71l3.39,1.18c.26.08.47.21.65.39Z"/>
</svg>