<?xml version="1.0" encoding="UTF-8"?>
<svg id="Layer_1" xmlns="http://www.w3.org/2000/svg" version="1.1" viewBox="0 0 480 480">
  <!-- Generator: Adobe Illustrator 30.2.1, SVG Export Plug-In . SVG Version: 2.1.1 Build 1)  -->
  <defs>
    <style>
      .st0 {
        fill-rule: evenodd;
      }
    </style>
  </defs>
  <path class="st0" d="M84.83,254.87c4.91-34.09,20.92-65.63,45.84-89.88,29.35-28.56,68.36-44.41,109.32-44.41s79.97,15.85,109.32,44.41c24.91,24.24,40.92,55.76,45.84,89.83h51.79v104.6H33.05v-104.62l51.78.07h0ZM96.45,267.79l-50.49-.07v78.78h388.07v-78.78h-50.49c-2.35-35.47-17.69-68.65-43.23-93.49-26.94-26.21-62.72-40.75-100.32-40.75s-73.38,14.54-100.32,40.75c-25.55,24.86-40.89,58.06-43.23,93.55h0ZM370.03,267.73h1.8c-2.33-32.3-16.39-62.47-39.66-85.11-24.76-24.09-57.62-37.43-92.16-37.43s-67.41,13.34-92.16,37.43c-23.27,22.64-37.34,52.81-39.66,85.11h2.08l2.99-2.71,53.15-48.73,6.72,1.58,15.66-18.2,15.42,11.41,46.59-53.86,27.35,30.81,10.72-2.15,24.75,30.05,7.58-4.51,47.33,54.36,1.5,1.96Z"/>
  <path d="M319.44,222.45l-7.75,4.61-26.17-31.77-10.51,2.1-24.12-27.17-45.39,52.47-15.4-11.4-13.86,16.1-7.37-1.73-45.87,42.05h235.88l-39.42-45.28ZM169.71,228.96l7.6,1.79,13.23-15.37-4.8,11.43,4.91,9.15-8.49-5.3-6.9,7.82,4.64,4.51-37.02,10.57,26.82-24.59ZM250.32,202.44l-7.52,19.26-9.97-6.11-56.5,45.67,74.58-86.49.12,11.74-5.83,13.57,5.12,2.35ZM267.32,258.48l51.5-32.17v19.63l-1.85,7.73,7.65,13.57-24.53-14.94-32.78,6.18Z"/>
  <path class="st0" d="M173.12,217.87l15.66-18.2,15.42,11.41,46.59-53.86,27.35,30.81,10.72-2.15,24.75,30.05,7.58-4.51,47.33,54.36,1.5,1.96h1.8c-2.33-32.3-16.39-62.47-39.66-85.11-24.76-24.09-57.62-37.43-92.16-37.43s-67.41,13.34-92.16,37.43c-23.27,22.64-37.34,52.81-39.66,85.11h2.08l2.99-2.71,53.15-48.73,6.72,1.58Z"/>
  <path class="st0" d="M241.38,299.21c-.88-1.14-1.94-2.01-3.19-2.62-1.25-.61-2.64-.91-4.15-.91h-3.19v25.01h4.33c1.55,0,2.88-.27,3.99-.8,1.12-.53,2.04-1.29,2.78-2.3.74-1.01,1.29-2.25,1.64-3.72.36-1.46.54-3.12.54-4.98,0-2.05-.23-3.89-.71-5.52-.48-1.63-1.16-3.02-2.03-4.16Z"/>
  <path class="st0" d="M365.03,295.67h-2.7v11.56c.12.03.31.05.59.08.28.03.58.05.9.08.32.03.63.06.93.07.29.02.54.03.71.03.9,0,1.7-.17,2.37-.51.67-.34,1.22-.8,1.66-1.36.44-.57.77-1.21.99-1.93.21-.72.32-1.46.32-2.21,0-2.03-.49-3.49-1.48-4.41-.99-.92-2.41-1.38-4.28-1.38Z"/>
  <path class="st0" d="M57.67,279.44v55.37h364.66v-55.37H57.67ZM84.99,294.12l-3.32,1.14c-.25.08-.47.21-.66.4-.18.19-.28.44-.28.76v23.48c0,.34.09.6.27.8.18.18.4.32.67.41l3.32,1.14v1.71h-15.53v-1.71l3.33-1.14c.29-.1.52-.25.68-.44.16-.18.23-.44.23-.77v-23.48c0-.33-.09-.59-.27-.77-.18-.19-.39-.32-.64-.39l-3.33-1.14v-1.71h15.53v1.71ZM115.85,319.78c-.63.54-1.37,1.08-2.23,1.65-.86.57-1.81,1.09-2.85,1.56-1.03.47-2.12.85-3.26,1.16-1.15.31-2.32.46-3.51.46-2.38,0-4.54-.38-6.49-1.13-1.94-.74-3.6-1.82-4.97-3.23-1.38-1.41-2.44-3.12-3.2-5.15-.74-2.03-1.12-4.32-1.12-6.86,0-1.67.18-3.22.54-4.68.37-1.46.88-2.8,1.55-4.03.67-1.23,1.48-2.33,2.43-3.29.95-.97,2-1.78,3.18-2.45,1.17-.67,2.45-1.18,3.83-1.54,1.37-.36,2.82-.54,4.34-.54.81,0,1.72.06,2.72.17,1,.11,1.99.25,2.99.41,1,.17,1.95.34,2.85.54.9.2,1.66.39,2.27.57v8.3h-2.44l-1.38-4.09c-.09-.23-.23-.42-.43-.58-.19-.17-.38-.3-.55-.4-.84-.46-1.7-.84-2.58-1.12-.89-.29-1.86-.44-2.91-.44-1.33,0-2.54.26-3.63.77-1.09.51-2.02,1.29-2.79,2.32-.77,1.03-1.36,2.32-1.78,3.84-.43,1.53-.64,3.31-.64,5.33s.23,3.95.7,5.57c.47,1.62,1.15,2.98,2.04,4.08.89,1.1,1.98,1.93,3.28,2.5,1.29.56,2.76.85,4.42.85,1.04,0,1.98-.12,2.81-.34.83-.23,1.58-.52,2.25-.86.67-.34,1.26-.71,1.78-1.1.53-.39.99-.76,1.39-1.1h1.38v2.86ZM147.06,323.95h-28.46v-1.71l3.21-1.14c.27-.09.49-.23.66-.43.17-.19.26-.45.26-.78v-23.48c0-.33-.09-.59-.27-.77-.18-.19-.39-.32-.65-.39l-3.21-1.14v-1.71h26.72v8.64h-2.49l-1.46-4.52c-.08-.25-.2-.45-.34-.59-.14-.14-.33-.21-.59-.21h-10.66v10.24h6.18c.3,0,.51-.07.64-.2.13-.13.23-.33.33-.59l1.3-3.58h2.12v11.95h-2.12l-1.3-3.54c-.09-.24-.2-.44-.33-.59-.13-.16-.33-.23-.64-.23h-6.18v11.45h12.45c.23,0,.44-.08.59-.23.16-.16.28-.35.35-.59l1.42-5.1h2.48v9.24ZM179.36,294.12l-3.32,1.14c-.25.08-.47.21-.66.4-.18.19-.28.44-.28.76v23.48c0,.34.09.6.27.8.18.18.4.32.67.41l3.32,1.14v1.71h-15.53v-1.71l3.33-1.14c.29-.1.52-.25.68-.44.16-.18.23-.44.23-.77v-23.48c0-.33-.09-.59-.27-.77-.18-.19-.39-.32-.64-.39l-3.33-1.14v-1.71h15.53v1.71ZM216.88,294.12l-3.21,1.29c-.25.11-.47.24-.65.42-.19.17-.28.41-.28.72v22.39l-.69,5.21h-4.4l-14.84-21.22-1.97-3.11h-.22v19.95c0,.33.08.58.25.76.18.18.39.32.66.42l3.19,1.3v1.71h-12.05v-1.71l3.21-1.3c.27-.1.49-.24.66-.42.17-.18.26-.44.26-.76v-23.3c0-.33-.09-.59-.27-.77-.18-.18-.39-.32-.65-.39l-3.39-1.18v-1.71h10.94l13.43,19.29,1.85,2.92h.25v-18.07c0-.33-.08-.57-.25-.73-.16-.16-.39-.29-.69-.41l-3.21-1.3v-1.71h12.07v1.71ZM250.37,315.23c-.87,1.98-2.07,3.61-3.57,4.9-1.51,1.29-3.29,2.24-5.33,2.88-2.05.63-4.24.95-6.58.95h-15.2v-1.71l3.21-1.14c.27-.09.49-.23.66-.43.17-.19.26-.45.26-.78v-23.48c0-.33-.09-.59-.26-.76-.17-.18-.39-.31-.66-.4l-3.21-1.14v-1.71h15.43c1.1,0,2.28.1,3.54.29,1.26.19,2.49.52,3.72.99,1.23.47,2.4,1.1,3.52,1.87,1.13.78,2.12,1.76,2.97,2.93.85,1.18,1.54,2.56,2.04,4.16.5,1.6.76,3.46.76,5.57,0,2.7-.44,5.03-1.31,7.01ZM288.21,294.12l-3.21,1.3c-.23.08-.45.22-.64.4-.18.18-.28.42-.28.74v17.48c0,1.28-.2,2.44-.59,3.47-.39,1.03-.93,1.94-1.6,2.74-.67.79-1.44,1.46-2.31,2.03-.87.57-1.78,1.03-2.73,1.39-.95.35-1.91.62-2.87.79-.96.18-1.87.26-2.71.26-2.13,0-3.99-.26-5.59-.78-1.6-.53-2.94-1.23-4.02-2.13-1.08-.89-1.89-1.93-2.44-3.1-.54-1.18-.81-2.42-.81-3.73v-18.55c0-.33-.1-.59-.29-.77-.19-.19-.41-.32-.67-.39l-3.19-1.14v-1.71h15.31v1.71l-3.21,1.14c-.23.08-.44.21-.64.4-.18.19-.28.44-.28.76v16.45c0,.55.03,1.13.11,1.73.08.6.21,1.2.4,1.78.19.59.46,1.15.8,1.67.33.52.77.98,1.31,1.37.54.39,1.18.71,1.94.95.76.24,1.65.36,2.68.36s1.91-.12,2.69-.36c.79-.23,1.46-.55,2.03-.95.57-.4,1.05-.87,1.44-1.4.39-.53.69-1.09.93-1.67.23-.59.39-1.19.49-1.79.1-.6.15-1.19.15-1.75v-16.25c0-.33-.09-.58-.28-.75-.18-.17-.39-.3-.64-.38l-3.19-1.3v-1.71h11.92v1.71ZM315.4,318.3c-.54,1.23-1.36,2.32-2.48,3.26-1.12.95-2.54,1.71-4.24,2.28-1.71.58-3.73.86-6.07.86-.85,0-1.75-.06-2.7-.17-.95-.11-1.89-.26-2.85-.44-.96-.19-1.91-.4-2.85-.64-.94-.24-1.83-.49-2.68-.74l-.27-9.16h2.45l1.56,4.34c.04.11.1.21.18.31.08.11.16.21.26.32.1.1.19.2.29.29.09.08.18.15.28.2.44.28.95.56,1.55.84s1.22.52,1.86.73c.63.2,1.26.38,1.87.51.61.13,1.17.2,1.66.2.91,0,1.74-.12,2.49-.36.74-.23,1.39-.57,1.92-1,.54-.44.95-.94,1.24-1.52.29-.58.44-1.22.44-1.92,0-.61-.08-1.15-.27-1.6-.18-.45-.44-.86-.8-1.22-.35-.35-.79-.67-1.31-.95-.51-.28-1.1-.54-1.77-.81-.61-.24-1.21-.45-1.82-.64-.6-.18-1.21-.36-1.8-.54-.59-.17-1.18-.34-1.77-.54-.59-.18-1.16-.38-1.72-.61-.93-.36-1.75-.81-2.48-1.36-.73-.54-1.36-1.16-1.87-1.86-.51-.7-.9-1.48-1.18-2.35-.28-.86-.42-1.79-.42-2.79,0-.94.15-1.82.44-2.67.29-.84.7-1.61,1.24-2.32.54-.7,1.17-1.34,1.9-1.9.73-.57,1.54-1.05,2.44-1.44.89-.39,1.84-.7,2.85-.91,1-.22,2.04-.33,3.11-.33.94,0,1.88.04,2.83.13.95.08,1.88.19,2.78.33.9.13,1.76.29,2.57.47.81.17,1.54.34,2.2.52v8.7h-2.44l-1.45-4.07c-.08-.21-.22-.41-.43-.6-.21-.19-.39-.35-.56-.47-.27-.19-.63-.38-1.08-.57-.45-.19-.95-.36-1.47-.51-.53-.14-1.06-.27-1.6-.37-.54-.09-1.02-.14-1.47-.14-.85,0-1.6.12-2.25.34-.65.23-1.21.54-1.65.92-.45.38-.79.82-1.02,1.31-.23.49-.34.98-.34,1.47,0,.55.07,1.06.21,1.52.14.46.38.89.72,1.28.33.39.78.75,1.32,1.09.55.33,1.25.63,2.08.91.57.19,1.13.38,1.69.54.55.18,1.12.34,1.69.52.58.17,1.16.35,1.76.55.59.2,1.21.44,1.87.7.8.32,1.57.71,2.31,1.19.74.48,1.39,1.05,1.96,1.71.58.66,1.03,1.44,1.37,2.33.34.88.52,1.89.52,3.02,0,1.31-.27,2.58-.8,3.81ZM348.58,301.35h-2.45l-1.47-4.87c-.08-.24-.19-.44-.33-.58-.15-.15-.34-.23-.59-.23h-6.58v24.22c0,.33.09.59.28.79.18.19.4.33.66.4l3.52,1.16v1.71h-15.96v-1.71l3.53-1.16c.29-.09.53-.23.69-.42.17-.18.25-.44.25-.77v-24.22h-6.55c-.27,0-.48.07-.62.21-.15.14-.26.34-.33.59l-1.47,4.87h-2.44v-8.94h29.86v8.94ZM384.5,323.95h-7.82c-.73,0-1.31-.06-1.76-.17-.45-.11-.83-.28-1.15-.51-.32-.23-.61-.54-.87-.92-.26-.38-.56-.83-.9-1.35l-6.67-10.31-2.99-.78v9.99c0,.34.08.6.24.79.17.19.38.33.64.42l3.44,1.14v1.71h-15.49v-1.71l3.21-1.14c.26-.09.47-.23.65-.43.18-.19.27-.45.27-.78v-23.48c0-.33-.09-.59-.27-.77-.18-.19-.39-.32-.65-.39l-3.21-1.14v-1.71h15.16c1.62,0,3.05.11,4.29.33,1.24.21,2.29.51,3.18.89.89.38,1.62.82,2.18,1.33.58.5,1.03,1.05,1.37,1.63.34.59.59,1.21.72,1.84.13.64.2,1.27.2,1.89,0,1.25-.21,2.34-.62,3.27-.41.92-.92,1.72-1.55,2.39-.63.67-1.32,1.22-2.08,1.66-.77.44-1.5.78-2.2,1.01l7.5,11.01c.1.15.23.31.38.48.15.18.32.33.49.49.18.15.36.28.54.4.19.12.37.2.55.24l3.21.96v1.71ZM413.33,294.12l-2.34,1.07c-.23.1-.47.27-.68.5-.22.23-.4.47-.55.73l-8.95,15.15v8.33c0,.34.08.6.24.8.17.18.39.32.65.41l3.57,1.14v1.71h-15.95v-1.71l3.52-1.14c.27-.09.49-.23.67-.43.18-.19.27-.45.27-.78v-8.17l-8.8-15.47c-.13-.25-.29-.49-.48-.73-.18-.23-.43-.39-.73-.5l-2.39-.91v-1.71h14.24v1.71l-3.7,1.21,5.73,9.87,1.31,2.75h.25l7.1-12.39-3.6-1.43v-1.71h10.6v1.71Z"/>
</svg>